<?xml version="1.0" encoding="UTF-8"?>
<svg xmlns="http://www.w3.org/2000/svg" xmlns:xlink="http://www.w3.org/1999/xlink" width="25px" height="25px" viewBox="0 0 25 25" version="1.1">
<g id="surface1">
<path style=" stroke:none;fill-rule:nonzero;fill:rgb(0%,0%,0%);fill-opacity:1;" d="M 12.5 0.390625 C 5.8125 0.390625 0.390625 5.8125 0.390625 12.5 C 0.390625 19.1875 5.8125 24.609375 12.5 24.609375 C 19.1875 24.609375 24.609375 19.1875 24.609375 12.5 C 24.609375 5.8125 19.1875 0.390625 12.5 0.390625 Z M 6.054688 14.453125 C 5.734375 14.453125 5.46875 14.191406 5.46875 13.867188 L 5.46875 11.132812 C 5.46875 10.8125 5.734375 10.546875 6.054688 10.546875 L 18.945312 10.546875 C 19.265625 10.546875 19.53125 10.8125 19.53125 11.132812 L 19.53125 13.867188 C 19.53125 14.191406 19.265625 14.453125 18.945312 14.453125 Z M 6.054688 14.453125 "/>
</g>
</svg>
