<svg width="238" height="82" viewBox="0 0 238 82" fill="none" xmlns="http://www.w3.org/2000/svg">
<circle cx="119.935" cy="42.2384" r="36.8187" fill="#3FFFF3"/>
<g clip-path="url(#clip0_25544_17925)">
<rect x="81.5" y="4.51587" width="71.2891" height="71.2891" rx="35.6446" fill="white"/>
<path d="M146.481 108.645C141.912 106.361 136.19 101.131 132.691 97.456C126.357 90.7437 122.476 83.5548 119.186 74.9343C119.129 74.8125 119.625 73.4558 119.567 73.334C117.338 67.4054 129.412 56.8731 131.082 58.4271C135.662 62.6644 142.68 71.9651 146.034 77.1542C151.085 84.9672 164.417 117.61 146.481 108.645Z" fill="#8A9AF1"/>
<path d="M138.099 50.4453C137.917 51.755 137.71 53.0426 137.456 54.333C136.085 61.4759 133.817 69.0262 129.589 74.9449C128.041 77.1149 126.224 79.1119 124.227 80.8598C117.519 86.76 109.06 90.1895 100.328 91.3916C97.0034 91.8483 93.582 91.862 90.3305 91.1571C90.0912 91.1004 89.8767 91.0659 89.6373 91.0092C88.583 90.741 87.5245 90.4022 86.5089 89.99C84.9591 89.326 83.5158 88.4668 82.2274 87.433C81.9783 87.2116 81.707 87.0151 81.4579 86.7937C81.3085 86.6608 81.159 86.528 81.033 86.3937C77.4029 82.8771 75.3369 77.8745 76.0364 72.5427C76.5097 68.972 78.1548 65.6626 80.2982 62.796C83.5783 58.3978 87.8521 54.8382 91.4062 50.6835C94.9396 46.5774 98.1242 42.1612 100.818 37.4199C101.524 36.1971 102.156 34.908 102.811 33.6174C103.715 31.7453 104.595 29.8511 105.522 27.9776C106.827 25.3023 108.256 22.7143 110.055 20.4113C111.371 18.7273 112.934 17.2177 114.757 16.1178C118.903 13.5814 124.2 12.9606 128.765 14.7214C129.127 14.8652 129.491 15.0326 129.831 15.2014C129.953 15.2651 130.1 15.3508 130.222 15.4145C133.835 17.4442 136.119 21.3475 137.299 25.3399C139.658 33.301 139.246 42.3001 138.099 50.4453Z" fill="#0A2FF1"/>
<path d="M137.312 25.5516C139.672 33.5363 139.262 42.5589 138.115 50.7041C137.933 52.0139 137.726 53.3015 137.471 54.5919C136.1 61.7348 133.833 69.285 129.604 75.2037C128.057 77.3737 126.239 79.3707 124.242 81.1186L118.197 51.128L137.312 25.5516Z" fill="#04146C"/>
<path d="M110.332 35.5722C109.425 34.8943 108.128 34.5934 107.182 35.1923C106.478 35.6353 106.073 36.509 106.077 37.3585C106.059 38.2093 106.384 39.0634 106.859 39.7669C108.238 41.8568 110.671 42.8457 112.978 43.6296L112.584 38.1297C111.869 37.2279 111.24 36.2502 110.332 35.5722Z" fill="white"/>
<path d="M144.75 122.158C142.367 128.522 95.6536 125.065 95.6536 125.065C75.7186 119.355 92.0071 62.1817 101.534 63.6688C105.974 64.308 126.428 56.8739 126.745 56.832C129.004 56.4668 130.212 57.5982 135.252 62.9905C140.293 68.3827 147.134 115.794 144.75 122.158Z" fill="#8A9AF1"/>
<path d="M145.096 112.782L144.768 112.801C144.409 110.333 144.1 107.886 143.765 105.417L142.972 99.5846L142.564 96.6692L142.156 93.7538L141.748 90.8384L141.317 87.9244L140.862 85.0118C140.687 84.0502 140.534 83.0635 140.383 82.1005C139.73 78.2277 139.006 74.359 138.235 70.4932C139.354 74.2673 140.241 78.1026 141.035 81.9671C141.233 82.9273 141.408 83.8889 141.584 84.8741L142.109 87.7826L142.588 90.6938L143.02 93.6078L143.429 96.5469L143.792 99.4887C144.025 101.442 144.258 103.396 144.445 105.353C144.662 107.829 144.903 110.304 145.096 112.782Z" fill="#3957F1"/>
<path d="M125.603 122.487C112.866 127.739 92.6605 126.278 79.6259 122.202C76.1399 121.113 80.8656 70.5769 91.9952 60.2374C95.7986 56.7057 103.258 63.113 110.741 57.9463C112.241 58.9675 100.559 74.94 100.38 77.0998C99.5487 86.6449 99.8317 96.214 98.3175 105.681C106.624 108.85 115.338 111.009 123.813 114.162C123.885 115.385 125.159 118.728 125.603 122.487Z" fill="#8A9AF1"/>
<path d="M124.394 113.64L98.2785 104.794C99.4207 97.6401 101.234 79.3453 101.234 79.3453L100.331 75.9739L94.4403 107.383C94.4403 107.383 114.573 112.332 123.63 114.63L124.93 122.702L125.748 122.653L124.394 113.64Z" fill="#3957F1"/>
<path d="M108.395 57.3767C111.253 53.4286 110.659 38.9862 110.659 38.9862L119.848 39.5283L119.904 56.0338C119.907 60.4737 125.701 55.8794 127.396 57.0071C129.974 58.6966 130.032 67.6679 118.729 68.1011C107.426 68.5343 100.371 59.7885 100.371 59.7885C100.371 59.7885 105.537 61.3248 108.395 57.3767Z" fill="white"/>
<path d="M137.887 30.8787C137.483 34.4217 137.602 38.0281 136.961 41.5615C136.539 43.9955 135.563 46.2498 134.162 48.104C131.208 52.0342 126.425 54.1596 120.997 52.5681C116.216 51.1507 112.472 46.9087 111.335 42.04C111.014 40.6183 110.836 39.1882 110.774 37.7512C110.692 35.5596 110.844 33.3541 111.118 31.1887C111.403 28.8337 111.293 26.1714 112.663 24.2009C112.815 23.9793 112.992 23.7799 113.169 23.5804C113.258 23.4807 113.37 23.3796 113.482 23.2785C114.402 22.4683 115.503 21.9307 116.604 21.3931C121.264 19.1805 128.444 16.4644 133.37 19.1485C134.516 19.7655 135.515 20.6983 136.369 21.9703C138.103 24.56 138.229 27.8826 137.887 30.8787Z" fill="white"/>
<path d="M140.588 26.1602C140.218 23.4899 139.166 20.8601 137.238 18.9907C135.51 17.3219 133.123 16.4715 130.784 16.8228C130.705 16.6857 130.626 16.5487 130.549 16.4352C130.114 15.8706 129.339 15.5387 128.156 15.4908C122.832 15.2633 116.559 16.5562 112.467 20.0106C108.824 23.0606 106.943 27.5883 105.641 31.9164C105.266 33.1667 104.939 34.4141 104.611 35.6616C104.269 37.0517 105.427 58.6626 107.265 58.1994C111.913 56.9791 109.195 34.9411 113.885 34.4269C122.21 33.5082 128.915 24.7505 130.109 21.775C130.344 23.7684 130.814 25.7243 131.607 27.5665C132.484 29.6164 133.752 31.5014 135.375 33.011C136.199 33.7651 137.112 34.4431 138.088 34.9756C138.283 35.0821 138.499 35.1402 138.713 35.1747C139.046 35.2258 139.398 35.1813 139.67 34.9999C140.285 34.6092 140.266 33.9018 140.348 33.2829C140.465 32.473 140.561 31.6881 140.631 30.8809C140.796 29.2888 140.797 27.7065 140.588 26.1602Z" fill="#0A2FF1"/>
<path d="M140.668 36.7838C140.684 39.8531 138.285 42.3806 135.251 42.5603C135.133 42.5672 135.039 42.5728 134.921 42.5798C131.735 42.5795 129.153 40.0165 129.153 36.8281C129.146 36.3089 129.212 35.8326 129.349 35.3522L126.948 35.0692C126.871 36.5617 126.245 37.945 125.198 38.9989C124.151 40.0529 122.749 40.6791 121.267 40.7669C121.149 40.7739 121.032 40.7808 120.914 40.7878C119.286 40.7898 117.786 40.1701 116.632 39.0103C115.479 37.8741 114.846 36.3528 114.844 34.7233C114.842 33.0938 115.461 31.5928 116.62 30.4378C117.756 29.2841 119.276 28.6509 120.904 28.6489C122.533 28.6469 124.033 29.2666 125.187 30.4264C126.265 31.4962 126.892 32.9233 126.958 34.431L129.549 34.7499C130.39 32.5981 132.47 31.0579 134.901 31.0556C136.435 31.0592 137.886 31.6581 138.988 32.7265C140.066 33.7963 140.671 35.2484 140.668 36.7838ZM120.895 29.2871C120.801 29.2927 120.683 29.2997 120.589 29.3052C119.248 29.3846 118.03 29.9292 117.071 30.8834C116.047 31.9124 115.489 33.268 115.482 34.7328C115.473 36.174 116.049 37.5333 117.077 38.5588C118.105 39.5843 119.46 40.1418 120.924 40.1496C122.362 40.1352 123.722 39.5823 124.747 38.5533C125.772 37.5243 126.329 36.1687 126.337 34.7039C126.325 31.7052 123.891 29.275 120.895 29.2871ZM138.543 33.178C137.566 32.2203 136.283 31.6823 134.915 31.6924C134.821 31.698 134.727 31.7036 134.609 31.7105C131.928 31.8693 129.772 34.1226 129.791 36.8375C129.793 39.6715 132.1 41.9675 134.932 41.9651C137.764 41.9627 140.059 39.654 140.056 36.82C140.045 35.4272 139.496 34.1371 138.543 33.178Z" fill="#04146C"/>
</g>
<rect x="81.9113" y="4.92715" width="70.4666" height="70.4666" rx="35.2333" stroke="#0A2FF1" stroke-width="0.822567"/>
<defs>
<clipPath id="clip0_25544_17925">
<rect x="81.5" y="4.51587" width="71.2891" height="71.2891" rx="35.6446" fill="white"/>
</clipPath>
</defs>
</svg>
