<svg width="238" height="82" viewBox="0 0 238 82" fill="none" xmlns="http://www.w3.org/2000/svg">
<path d="M168.535 12.9429C169.168 18.6377 172.648 21.4777 177.07 21.4777C172.806 22.276 169.168 25.7562 168.535 30.0124C167.744 25.7562 164.58 22.276 160 21.4777C164.422 21.4777 167.606 18.5817 168.535 12.9429Z" fill="#0A2FF1"/>
<path d="M51.4732 44.5948C53.2129 42.8979 54.5277 40.5682 55.3484 37.6436C56.0691 40.6011 57.3975 42.9378 59.1858 44.6308C60.8133 46.1715 62.8001 47.1585 65.0066 47.6016C60.5165 49.3103 56.8192 53.0066 55.3843 57.5446C53.9113 53.0031 50.5439 49.281 45.8776 47.5776C48.0156 47.118 49.9068 46.1226 51.4732 44.5948Z" fill="#3FFFF3" stroke="#0A2FF1" stroke-width="1.0458"/>
<path d="M70.9504 60.9429C71.3916 64.9133 73.818 66.8933 76.9009 66.8933C73.9282 67.4499 71.3916 69.8763 70.9504 72.8438C70.399 69.8763 68.1932 67.4499 65 66.8933C68.0829 66.8933 70.3031 64.8742 70.9504 60.9429Z" fill="#0A2FF1"/>
<path d="M101.449 19.2773L96.8196 28.9156L120.501 19.8539C116.244 18.0479 113.257 16.7707 110.578 15.4973C106.559 13.5873 103.835 14.1787 101.449 19.2773Z" fill="#3FFFF3"/>
<g filter="url(#filter0_d_25544_17908)">
<path d="M146.222 58.6301L104.448 72.7274C103.078 73.1897 101.582 73.0871 100.289 72.442C98.9953 71.797 98.011 70.6624 97.552 69.2879L91.6156 51.5095C91.1237 50.0364 88.54 44.635 89.2671 43.262L140.424 26.3048C139.276 21.633 143.056 31.9378 143.244 32.5014L149.656 51.7045C150.612 54.5668 149.074 57.6675 146.222 58.6301Z" fill="white" stroke="#0A2FF1" stroke-width="1.13543"/>
<path d="M95.2234 58.8263C94.9561 59.0834 94.575 59.1851 94.2145 59.0956C93.854 59.0061 93.5648 58.738 93.449 58.3859L86.5513 37.4167C86.2726 36.5694 86.3427 35.6467 86.746 34.8515C87.1493 34.0563 87.8529 33.4537 88.702 33.1764L112.242 25.4869L135.782 17.7975C136.631 17.5202 137.556 17.5907 138.354 17.9937C139.151 18.3967 139.756 19.0991 140.035 19.9463L146.814 40.5563C146.955 40.986 146.865 41.4578 146.576 41.8053C146.286 42.1529 145.837 42.3272 145.388 42.2669L95.2234 58.8263Z" fill="white" stroke="#0A2FF1" stroke-width="1.13543"/>
</g>
<path d="M120.287 22.213L110.565 17.9315C108.837 17.1524 106.085 17.8158 105.236 19.6293L100.627 28.6232" stroke="#0A2FF1" stroke-width="1.17532" stroke-linecap="round"/>
<path d="M149.5 16.4052C149.5 23.0273 144.122 28.397 137.485 28.397C130.849 28.397 125.471 23.0273 125.471 16.4052C125.471 9.7831 130.849 4.41337 137.485 4.41337C144.122 4.41337 149.5 9.7831 149.5 16.4052Z" fill="#3FFFF3" stroke="#0A2FF1" stroke-width="0.941001"/>
<path d="M131.85 21.9429V22.0929H132H134.013H134.163V21.9429V10.9429V10.7929H134.013H132H131.85V10.9429V21.9429ZM138.874 21.9429V22.0929H139.024H141.037H141.187V21.9429V12.7468H144.672H144.822V12.5968V10.9429V10.7929H144.672H135.389H135.239V10.9429V12.5968V12.7468H135.389H138.874V21.9429Z" fill="#0A2FF1" stroke="#0A2FF1" stroke-width="0.3"/>
<defs>
<filter id="filter0_d_25544_17908" x="81.506" y="14.7123" width="69.0019" height="58.868" filterUnits="userSpaceOnUse" color-interpolation-filters="sRGB">
<feFlood flood-opacity="0" result="BackgroundImageFix"/>
<feColorMatrix in="SourceAlpha" type="matrix" values="0 0 0 0 0 0 0 0 0 0 0 0 0 0 0 0 0 0 127 0" result="hardAlpha"/>
<feOffset dx="-4.30952" dy="-2.35065"/>
<feComposite in2="hardAlpha" operator="out"/>
<feColorMatrix type="matrix" values="0 0 0 0 0.247059 0 0 0 0 1 0 0 0 0 0.952941 0 0 0 1 0"/>
<feBlend mode="normal" in2="BackgroundImageFix" result="effect1_dropShadow_25544_17908"/>
<feBlend mode="normal" in="SourceGraphic" in2="effect1_dropShadow_25544_17908" result="shape"/>
</filter>
</defs>
</svg>
