<svg width="238" height="82" viewBox="0 0 238 82" fill="none" xmlns="http://www.w3.org/2000/svg">
<path d="M86.6499 56.3672L156.867 56.3672C158.121 56.3672 159.138 55.3443 159.138 54.0824V11.1351C159.138 9.87329 158.121 8.85036 156.867 8.85036L86.6499 8.85036C85.3955 8.85036 84.3786 9.87329 84.3786 11.1351V54.0824C84.3786 55.3443 85.3955 56.3672 86.6499 56.3672Z" fill="#3FFFF3"/>
<path d="M83.1751 53.8335L153.69 53.8335C154.95 53.8335 155.971 52.8038 155.971 51.5335V8.2999C155.971 7.02964 154.95 5.9999 153.69 5.9999L83.1751 5.9999C81.9154 5.9999 80.8942 7.02964 80.8942 8.2999V51.5335C80.8942 52.8038 81.9154 53.8335 83.1751 53.8335Z" fill="white" stroke="#0A2FF1" stroke-width="0.545703" stroke-miterlimit="10"/>
<path d="M126.75 20.0179V13.5035H149.103V20.0179H126.75Z" fill="white" stroke="#0A2FF1" stroke-width="0.454752"/>
<path d="M126.75 45.6776V24.5914H149.103V45.6776H126.75Z" fill="white" stroke="#0A2FF1" stroke-width="0.454752"/>
<path d="M87.8756 13.5933H121.137" stroke="#0A2FF1" stroke-width="0.454752" stroke-miterlimit="10"/>
<path d="M87.8756 19.96H121.137" stroke="#0A2FF1" stroke-width="0.454752" stroke-miterlimit="10"/>
<path d="M87.8756 26.3264H121.137" stroke="#0A2FF1" stroke-width="0.454752" stroke-miterlimit="10"/>
<path d="M87.8756 32.6929H121.137" stroke="#0A2FF1" stroke-width="0.454752" stroke-miterlimit="10"/>
<path d="M87.8756 45.9045H121.137" stroke="#0A2FF1" stroke-width="0.454752" stroke-miterlimit="10"/>
<mask id="path-10-inside-1_25544_17961" fill="white">
<path fill-rule="evenodd" clip-rule="evenodd" d="M93.8739 49.5834C93.8725 49.585 93.8711 49.5865 93.8697 49.588C91.8456 51.8033 69.6275 67.3085 69.6275 67.3085C61.9702 61.6977 64.644 57.12 64.644 57.12L90.2187 44.0517C90.6311 43.6419 91.5846 42.6944 93.0789 41.209C95.143 39.1582 103.224 37.2194 103.696 37.1664C105.306 36.987 105.247 38.7807 100.916 40.4556C104.038 41.5202 106.492 41.4489 108.553 40.4264C110.614 39.4043 111.608 41.8474 109.175 44.1085C108.728 44.5235 108.309 44.9325 107.903 45.3284C106.098 47.0896 104.558 48.5928 102.023 49.2171C98.0359 50.1986 95.4487 49.8894 93.8739 49.5834Z"/>
</mask>
<path fill-rule="evenodd" clip-rule="evenodd" d="M93.8739 49.5834C93.8725 49.585 93.8711 49.5865 93.8697 49.588C91.8456 51.8033 69.6275 67.3085 69.6275 67.3085C61.9702 61.6977 64.644 57.12 64.644 57.12L90.2187 44.0517C90.6311 43.6419 91.5846 42.6944 93.0789 41.209C95.143 39.1582 103.224 37.2194 103.696 37.1664C105.306 36.987 105.247 38.7807 100.916 40.4556C104.038 41.5202 106.492 41.4489 108.553 40.4264C110.614 39.4043 111.608 41.8474 109.175 44.1085C108.728 44.5235 108.309 44.9325 107.903 45.3284C106.098 47.0896 104.558 48.5928 102.023 49.2171C98.0359 50.1986 95.4487 49.8894 93.8739 49.5834Z" fill="#F3F9FF"/>
<path d="M93.8697 49.588L94.2723 49.9558L94.2723 49.9558L93.8697 49.588ZM93.8739 49.5834L93.9778 49.0482L93.6757 48.9895L93.4693 49.2178L93.8739 49.5834ZM69.6275 67.3085L69.3052 67.7483L69.6198 67.9788L69.9395 67.7556L69.6275 67.3085ZM64.644 57.12L64.3959 56.6345L64.2537 56.7071L64.1732 56.845L64.644 57.12ZM90.2187 44.0517L90.4669 44.5372L90.5427 44.4985L90.6031 44.4384L90.2187 44.0517ZM93.0789 41.209L92.6946 40.8222L92.6945 40.8222L93.0789 41.209ZM103.696 37.1664L103.635 36.6245L103.635 36.6245L103.696 37.1664ZM100.916 40.4556L100.719 39.947L99.3207 40.4878L100.74 40.9717L100.916 40.4556ZM108.553 40.4264L108.311 39.9379L108.311 39.9379L108.553 40.4264ZM109.175 44.1085L109.546 44.5081L109.546 44.508L109.175 44.1085ZM107.903 45.3284L108.284 45.7187L108.284 45.7187L107.903 45.3284ZM102.023 49.2171L102.153 49.7466L102.154 49.7465L102.023 49.2171ZM94.2723 49.9558C94.2746 49.9533 94.2766 49.951 94.2784 49.9491L93.4693 49.2178C93.4684 49.2189 93.4677 49.2197 93.4671 49.2202L94.2723 49.9558ZM69.6275 67.3085C69.9395 67.7556 69.9396 67.7556 69.9398 67.7554C69.94 67.7553 69.9402 67.7551 69.9406 67.7549C69.9413 67.7544 69.9423 67.7537 69.9436 67.7528C69.9463 67.7509 69.9504 67.7481 69.9557 67.7443C69.9665 67.7368 69.9824 67.7257 70.0035 67.711C70.0457 67.6815 70.1082 67.6378 70.1899 67.5807C70.3533 67.4665 70.5931 67.2988 70.899 67.0845C71.5107 66.656 72.3869 66.0415 73.4445 65.2971C75.5598 63.8084 78.4015 61.8002 81.3068 59.7225C84.2115 57.6452 87.182 55.4969 89.5539 53.7286C90.7395 52.8446 91.7785 52.0535 92.5859 51.4126C93.3804 50.782 93.9847 50.2706 94.2723 49.9558L93.4672 49.2202C93.2487 49.4593 92.7159 49.917 91.9079 50.5584C91.1129 51.1894 90.084 51.9731 88.902 52.8542C86.5388 54.6162 83.5752 56.7595 80.6724 58.8354C77.7701 60.911 74.9308 62.9175 72.8169 64.4053C71.76 65.1491 70.8845 65.7632 70.2733 66.1913C69.9677 66.4053 69.7282 66.5729 69.5651 66.6869C69.4835 66.7439 69.4211 66.7875 69.3791 66.8169C69.358 66.8316 69.3421 66.8427 69.3315 66.8501C69.3261 66.8538 69.3221 66.8566 69.3194 66.8585C69.3181 66.8594 69.3171 66.8601 69.3164 66.8606C69.3161 66.8608 69.3158 66.861 69.3157 66.8611C69.3155 66.8613 69.3154 66.8613 69.6275 67.3085ZM64.644 57.12C64.1732 56.845 64.1729 56.8455 64.1726 56.8459C64.1725 56.8461 64.1723 56.8465 64.1721 56.8469C64.1717 56.8476 64.1712 56.8483 64.1708 56.8492C64.1698 56.8508 64.1687 56.8528 64.1674 56.855C64.1649 56.8595 64.1617 56.8652 64.158 56.8719C64.1506 56.8855 64.141 56.9035 64.1296 56.926C64.1068 56.971 64.0767 57.0338 64.0426 57.1135C63.9746 57.2728 63.8905 57.5004 63.8173 57.789C63.6708 58.3671 63.5683 59.1893 63.7255 60.1945C64.0422 62.2186 65.3933 64.8819 69.3052 67.7483L69.9498 66.8686C66.2045 64.1243 65.0638 61.6933 64.803 60.026C64.6715 59.1854 64.7589 58.5125 64.8744 58.057C64.9323 57.8288 64.9973 57.6549 65.0455 57.5419C65.0696 57.4855 65.0895 57.4444 65.1021 57.4196C65.1084 57.4072 65.1128 57.3989 65.1151 57.3948C65.1162 57.3927 65.1168 57.3917 65.1168 57.3917C65.1168 57.3917 65.1166 57.392 65.1163 57.3926C65.1161 57.3929 65.1159 57.3932 65.1157 57.3936C65.1156 57.3938 65.1154 57.3942 65.1153 57.3943C65.1151 57.3947 65.1149 57.3951 64.644 57.12ZM89.9706 43.5661L64.3959 56.6345L64.8921 57.6056L90.4669 44.5372L89.9706 43.5661ZM90.6031 44.4384C91.0155 44.0286 91.9689 43.0811 93.4634 41.5957L92.6945 40.8222C91.2002 42.3076 90.2468 43.2551 89.8344 43.6649L90.6031 44.4384ZM93.4633 41.5958C93.9046 41.1573 94.7183 40.6844 95.7644 40.2175C96.7944 39.7578 97.992 39.3285 99.1504 38.9579C100.307 38.5878 101.416 38.2792 102.264 38.06C102.688 37.9504 103.046 37.8635 103.311 37.8027C103.443 37.7722 103.551 37.7486 103.631 37.7321C103.671 37.7239 103.703 37.7177 103.727 37.7134C103.753 37.7087 103.761 37.7079 103.757 37.7083L103.635 36.6245C103.538 36.6354 103.326 36.6803 103.067 36.7398C102.791 36.8031 102.424 36.8924 101.992 37.0041C101.127 37.2274 99.9985 37.5416 98.8182 37.9192C97.6394 38.2962 96.4003 38.7394 95.3199 39.2217C94.2556 39.6967 93.2853 40.2352 92.6946 40.8222L93.4633 41.5958ZM103.756 37.7084C104.096 37.6705 104.169 37.761 104.146 37.7353C104.075 37.6577 104.178 37.6341 104.058 37.8498C103.939 38.0634 103.652 38.3816 103.097 38.759C102.551 39.1309 101.774 39.5392 100.719 39.947L101.113 40.9642C102.224 40.5346 103.079 40.0906 103.711 39.6607C104.335 39.2363 104.774 38.8033 105.01 38.3815C105.244 37.9619 105.331 37.4188 104.954 37.003C104.624 36.6391 104.101 36.5726 103.635 36.6245L103.756 37.7084ZM100.74 40.9717C103.955 42.068 106.567 42.0202 108.795 40.9149L108.311 39.9379C106.417 40.8776 104.121 40.9724 101.092 39.9395L100.74 40.9717ZM108.795 40.9149C109.223 40.7027 109.516 40.7092 109.682 40.7673C109.834 40.8206 109.961 40.9444 110.022 41.1753C110.152 41.6677 109.944 42.6493 108.803 43.7091L109.546 44.508C110.839 43.3066 111.351 41.9361 111.076 40.8972C110.935 40.3625 110.579 39.9258 110.042 39.7378C109.518 39.5546 108.913 39.6391 108.311 39.9379L108.795 40.9149ZM108.803 43.709C108.351 44.1293 107.927 44.5428 107.522 44.9381L108.284 45.7187C108.69 45.3221 109.105 44.9178 109.546 44.5081L108.803 43.709ZM107.522 44.9381C105.707 46.7092 104.264 48.1035 101.893 48.6876L102.154 49.7465C104.851 49.0821 106.489 47.4701 108.284 45.7187L107.522 44.9381ZM101.893 48.6876C97.9957 49.6469 95.4899 49.3419 93.9778 49.0482L93.7699 50.1187C95.4075 50.4369 98.076 50.7503 102.153 49.7466L101.893 48.6876Z" fill="#5974FF" mask="url(#path-10-inside-1_25544_17961)"/>
<path d="M92.9863 45.459C92.8942 45.4357 92.8007 45.4914 92.7774 45.5834C92.7541 45.6755 92.8098 45.769 92.9019 45.7923C93.7419 46.0049 94.7434 45.4394 95.8494 44.3382C96.2612 43.9281 96.6645 43.4648 97.0471 42.9783M92.9863 45.459L97.6556 42.1565C97.5236 42.3487 97.3454 42.5945 97.1297 42.8726M92.9863 45.459C93.6676 45.6314 94.5815 45.1154 95.6067 44.0945C96.0078 43.6952 96.4022 43.2421 96.7769 42.7658L92.9863 45.459ZM97.0471 42.9783L97.1297 42.8726M97.0471 42.9783L96.991 42.9345L97.4911 42.2675L97.4896 42.2697C97.3933 42.4052 97.2801 42.5594 97.1519 42.727L97.1508 42.7285L97.1508 42.7285L97.0732 42.8285L97.1297 42.8726M97.0471 42.9783L96.9911 42.9343C96.9911 42.9343 96.9912 42.9343 96.9912 42.9343L96.9912 42.9343L96.9923 42.9328L97.0731 42.8287L97.1297 42.8726M99.1521 40.9308L99.1522 40.9307L99.1521 40.9308Z" fill="#F3F9FF" stroke="#5974FF" stroke-width="0.545283"/>
<mask id="path-13-inside-2_25544_17961" fill="white">
<path d="M105.712 46.0581C105.975 46.1777 106.131 46.4075 106.145 46.7263C106.149 46.8236 106.072 46.8984 105.973 46.8934C105.874 46.8885 105.79 46.8056 105.786 46.7083C105.778 46.5294 105.713 46.4329 105.587 46.3757C105.443 46.3101 105.223 46.2986 104.964 46.3343C104.887 46.3448 104.811 46.3589 104.737 46.3755L104.627 46.4022C104.562 46.4191 104.515 46.4336 104.513 46.4319L104.443 46.4663C104.422 46.4759 104.398 46.4868 104.371 46.4988C104.259 46.548 104.13 46.599 103.984 46.649C103.569 46.7916 103.105 46.8994 102.605 46.9516C101.714 47.0445 100.804 46.9509 99.9024 46.6206C99.8069 46.5856 99.7512 46.4835 99.778 46.3926C99.8048 46.3018 99.904 46.2564 99.9995 46.2914C100.843 46.6005 101.696 46.6882 102.534 46.6009C103.007 46.5515 103.446 46.4495 103.838 46.3148C103.94 46.2796 104.034 46.244 104.118 46.2091L104.199 46.1746C104.261 46.1476 104.302 46.1277 104.345 46.1073L104.426 46.0823C104.449 46.0757 104.475 46.0684 104.504 46.0608C104.625 46.0293 104.752 46.0027 104.882 45.9849C105.204 45.9406 105.487 45.9553 105.712 46.0581Z"/>
</mask>
<path d="M105.712 46.0581C105.975 46.1777 106.131 46.4075 106.145 46.7263C106.149 46.8236 106.072 46.8984 105.973 46.8934C105.874 46.8885 105.79 46.8056 105.786 46.7083C105.778 46.5294 105.713 46.4329 105.587 46.3757C105.443 46.3101 105.223 46.2986 104.964 46.3343C104.887 46.3448 104.811 46.3589 104.737 46.3755L104.627 46.4022C104.562 46.4191 104.515 46.4336 104.513 46.4319L104.443 46.4663C104.422 46.4759 104.398 46.4868 104.371 46.4988C104.259 46.548 104.13 46.599 103.984 46.649C103.569 46.7916 103.105 46.8994 102.605 46.9516C101.714 47.0445 100.804 46.9509 99.9024 46.6206C99.8069 46.5856 99.7512 46.4835 99.778 46.3926C99.8048 46.3018 99.904 46.2564 99.9995 46.2914C100.843 46.6005 101.696 46.6882 102.534 46.6009C103.007 46.5515 103.446 46.4495 103.838 46.3148C103.94 46.2796 104.034 46.244 104.118 46.2091L104.199 46.1746C104.261 46.1476 104.302 46.1277 104.345 46.1073L104.426 46.0823C104.449 46.0757 104.475 46.0684 104.504 46.0608C104.625 46.0293 104.752 46.0027 104.882 45.9849C105.204 45.9406 105.487 45.9553 105.712 46.0581Z" fill="#F3F9FF"/>
<path d="M105.712 46.0581L105.932 45.5576L105.932 45.5576L105.712 46.0581ZM106.145 46.7263L106.686 46.7047L106.686 46.7047L106.145 46.7263ZM105.973 46.8934L105.949 47.4417L105.949 47.4417L105.973 46.8934ZM105.786 46.7083L106.327 46.6867L106.327 46.6867L105.786 46.7083ZM105.587 46.3757L105.367 46.8762L105.367 46.8762L105.587 46.3757ZM104.964 46.3343L104.889 45.7904L104.889 45.7904L104.964 46.3343ZM104.737 46.3755L104.618 45.8394L104.608 45.8417L104.737 46.3755ZM104.627 46.4022L104.498 45.8683L104.489 45.8707L104.627 46.4022ZM104.513 46.4319L104.925 46.0776L104.653 45.7532L104.276 45.9373L104.513 46.4319ZM104.443 46.4663L104.671 46.9652L104.68 46.9609L104.443 46.4663ZM104.371 46.4988L104.154 45.9951L104.154 45.9951L104.371 46.4988ZM103.984 46.649L104.16 47.169L104.16 47.169L103.984 46.649ZM102.605 46.9516L102.663 47.4977L102.605 46.9516ZM99.9024 46.6206L99.7204 47.1367L99.7204 47.1367L99.9024 46.6206ZM99.778 46.3926L99.259 46.2331L99.259 46.2331L99.778 46.3926ZM99.9995 46.2914L99.8175 46.8075L99.8175 46.8075L99.9995 46.2914ZM102.534 46.6009L102.592 47.1469L102.534 46.6009ZM103.838 46.3148L104.014 46.8348L104.014 46.8348L103.838 46.3148ZM104.118 46.2091L104.325 46.7175L104.33 46.7152L104.118 46.2091ZM104.199 46.1746L104.412 46.6807L104.417 46.6783L104.199 46.1746ZM104.345 46.1073L104.185 45.5822L104.149 45.5934L104.114 45.6096L104.345 46.1073ZM104.426 46.0823L104.276 45.5542L104.266 45.5572L104.426 46.0823ZM104.504 46.0608L104.366 45.5294L104.366 45.5294L104.504 46.0608ZM104.882 45.9849L104.806 45.441L104.806 45.441L104.882 45.9849ZM105.492 46.5586C105.539 46.5799 105.56 46.6025 105.571 46.6197C105.583 46.6376 105.601 46.6748 105.604 46.748L106.686 46.7047C106.664 46.1871 106.391 45.7664 105.932 45.5576L105.492 46.5586ZM105.604 46.748C105.593 46.5041 105.798 46.3352 105.997 46.3452L105.949 47.4417C106.347 47.4616 106.705 47.1431 106.686 46.7047L105.604 46.748ZM105.997 46.3452C106.089 46.3498 106.167 46.3896 106.221 46.4436C106.276 46.4974 106.323 46.581 106.327 46.6867L105.245 46.73C105.262 47.1259 105.584 47.4234 105.949 47.4417L105.997 46.3452ZM106.327 46.6867C106.321 46.5366 106.288 46.3662 106.19 46.2072C106.088 46.0418 105.946 45.9385 105.807 45.8752L105.367 46.8762C105.363 46.8741 105.347 46.8666 105.328 46.8504C105.307 46.8334 105.288 46.8113 105.272 46.7855C105.24 46.7338 105.244 46.7011 105.245 46.73L106.327 46.6867ZM105.807 45.8752C105.522 45.7454 105.178 45.7505 104.889 45.7904L105.039 46.8782C105.143 46.864 105.226 46.861 105.288 46.8649C105.353 46.8689 105.374 46.8794 105.367 46.8762L105.807 45.8752ZM104.889 45.7904C104.796 45.8031 104.705 45.82 104.618 45.8395L104.856 46.9116C104.917 46.8979 104.979 46.8865 105.039 46.8782L104.889 45.7904ZM104.608 45.8417L104.498 45.8684L104.755 46.9361L104.865 46.9094L104.608 45.8417ZM104.489 45.8707C104.452 45.8803 104.42 45.8894 104.402 45.8942C104.391 45.8972 104.39 45.8975 104.392 45.8969C104.393 45.8967 104.396 45.896 104.4 45.8951C104.403 45.8944 104.411 45.8927 104.421 45.891C104.427 45.8899 104.453 45.8853 104.486 45.8838C104.501 45.883 104.541 45.8816 104.59 45.8891C104.616 45.8929 104.66 45.9012 104.711 45.922C104.76 45.9416 104.848 45.9851 104.925 46.0776L104.101 46.7863C104.179 46.8788 104.267 46.9224 104.316 46.942C104.367 46.9628 104.411 46.9712 104.437 46.975C104.487 46.9826 104.527 46.9811 104.542 46.9804C104.577 46.9787 104.603 46.974 104.611 46.9727C104.631 46.9691 104.648 46.965 104.653 46.9638C104.667 46.9604 104.681 46.9563 104.69 46.9538C104.713 46.9476 104.736 46.9411 104.765 46.9337L104.489 45.8707ZM104.276 45.9373L104.206 45.9716L104.68 46.9609L104.75 46.9266L104.276 45.9373ZM104.215 45.9674C104.198 45.9753 104.177 45.9846 104.154 45.9951L104.589 47.0025C104.619 46.989 104.647 46.9765 104.671 46.9652L104.215 45.9674ZM104.154 45.9951C104.056 46.038 103.94 46.0835 103.808 46.1291L104.16 47.169C104.319 47.1144 104.462 47.0581 104.589 47.0025L104.154 45.9951ZM103.808 46.1291C103.43 46.259 103.006 46.3577 102.547 46.4056L102.663 47.4977C103.205 47.4411 103.708 47.3243 104.16 47.169L103.808 46.1291ZM102.547 46.4056C101.732 46.4905 100.905 46.4049 100.084 46.1044L99.7204 47.1367C100.704 47.4969 101.696 47.5984 102.663 47.4977L102.547 46.4056ZM100.084 46.1044C100.224 46.1558 100.363 46.3284 100.297 46.5522L99.259 46.2331C99.1393 46.6387 99.3892 47.0154 99.7204 47.1367L100.084 46.1044ZM100.297 46.5522C100.223 46.8035 99.9725 46.8643 99.8175 46.8075L100.181 45.7753C99.8354 45.6485 99.3868 45.8 99.259 46.2331L100.297 46.5522ZM99.8175 46.8075C100.743 47.1466 101.679 47.2421 102.592 47.1469L102.476 46.0548C101.714 46.1343 100.943 46.0544 100.181 45.7753L99.8175 46.8075ZM102.592 47.1469C103.107 47.0932 103.585 46.9822 104.014 46.8348L103.662 45.7949C103.307 45.9168 102.908 46.0098 102.476 46.0548L102.592 47.1469ZM104.014 46.8348C104.126 46.7962 104.23 46.7567 104.325 46.7175L103.912 45.7008C103.838 45.7313 103.754 45.763 103.662 45.7949L104.014 46.8348ZM104.33 46.7152L104.412 46.6806L103.987 45.6685L103.906 45.7031L104.33 46.7152ZM104.417 46.6783C104.487 46.6477 104.536 46.624 104.576 46.6051L104.114 45.6096C104.068 45.6314 104.035 45.6475 103.982 45.6709L104.417 46.6783ZM104.505 46.6324L104.586 46.6074L104.266 45.5572L104.185 45.5822L104.505 46.6324ZM104.577 46.6103C104.595 46.6049 104.617 46.5989 104.642 46.5923L104.366 45.5294C104.333 45.538 104.303 45.5464 104.276 45.5543L104.577 46.6103ZM104.642 46.5923C104.745 46.5655 104.851 46.5434 104.957 46.5288L104.806 45.441C104.653 45.4621 104.505 45.4931 104.366 45.5294L104.642 46.5923ZM104.957 46.5288C105.234 46.4908 105.4 46.5163 105.492 46.5586L105.932 45.5576C105.574 45.3943 105.174 45.3904 104.806 45.441L104.957 46.5288Z" fill="#5974FF" mask="url(#path-13-inside-2_25544_17961)"/>
<mask id="path-15-inside-3_25544_17961" fill="white">
<path d="M107.553 43.8456C108.093 43.9633 108.308 44.3742 108.048 45.0053C108.011 45.0951 107.905 45.1333 107.812 45.0906C107.719 45.0478 107.673 44.9404 107.71 44.8505C107.886 44.424 107.802 44.2635 107.498 44.1972C107.358 44.1665 107.18 44.1621 106.98 44.1799C106.859 44.1907 106.737 44.2089 106.622 44.2314L106.52 44.2527C106.503 44.2566 106.49 44.2596 106.482 44.2616C104.988 44.7227 103.767 44.8754 102.796 44.7984C102.201 44.7512 101.816 44.6328 101.623 44.5239C101.534 44.4733 101.498 44.3629 101.543 44.2772C101.584 44.2002 101.676 44.1695 101.76 44.201L101.824 44.2317C101.863 44.2493 101.925 44.2731 102.011 44.2996C102.221 44.3643 102.484 44.4142 102.801 44.4394C103.724 44.5125 104.901 44.3654 106.361 43.9149L106.413 43.9024C106.444 43.8952 106.483 43.8868 106.529 43.8778C106.656 43.853 106.789 43.8331 106.924 43.8211C107.157 43.8004 107.37 43.8056 107.553 43.8456Z"/>
</mask>
<path d="M107.553 43.8456C108.093 43.9633 108.308 44.3742 108.048 45.0053C108.011 45.0951 107.905 45.1333 107.812 45.0906C107.719 45.0478 107.673 44.9404 107.71 44.8505C107.886 44.424 107.802 44.2635 107.498 44.1972C107.358 44.1665 107.18 44.1621 106.98 44.1799C106.859 44.1907 106.737 44.2089 106.622 44.2314L106.52 44.2527C106.503 44.2566 106.49 44.2596 106.482 44.2616C104.988 44.7227 103.767 44.8754 102.796 44.7984C102.201 44.7512 101.816 44.6328 101.623 44.5239C101.534 44.4733 101.498 44.3629 101.543 44.2772C101.584 44.2002 101.676 44.1695 101.76 44.201L101.824 44.2317C101.863 44.2493 101.925 44.2731 102.011 44.2996C102.221 44.3643 102.484 44.4142 102.801 44.4394C103.724 44.5125 104.901 44.3654 106.361 43.9149L106.413 43.9024C106.444 43.8952 106.483 43.8868 106.529 43.8778C106.656 43.853 106.789 43.8331 106.924 43.8211C107.157 43.8004 107.37 43.8056 107.553 43.8456Z" fill="#F3F9FF"/>
<path d="M107.553 43.8456L107.442 44.3822L107.442 44.3822L107.553 43.8456ZM108.048 45.0053L107.548 44.7917L107.548 44.7917L108.048 45.0053ZM107.71 44.8505L107.21 44.6369L107.21 44.6369L107.71 44.8505ZM107.498 44.1972L107.386 44.7338L107.386 44.7338L107.498 44.1972ZM106.98 44.1799L107.03 44.7267L107.03 44.7267L106.98 44.1799ZM106.622 44.2314L106.517 43.6924L106.51 43.6939L106.622 44.2314ZM106.52 44.2527L106.408 43.7151L106.4 43.7169L106.52 44.2527ZM106.482 44.2616L106.35 43.7287L106.336 43.7322L106.322 43.7364L106.482 44.2616ZM102.796 44.7984L102.757 45.3456L102.796 44.7984ZM101.623 44.5239L101.885 44.0448L101.885 44.0448L101.623 44.5239ZM101.543 44.2772L101.065 44.0164L101.065 44.0164L101.543 44.2772ZM101.76 44.201L101.991 43.7055L101.969 43.6952L101.947 43.6868L101.76 44.201ZM101.824 44.2317L101.593 44.7272L101.6 44.7306L101.607 44.7338L101.824 44.2317ZM102.011 44.2996L101.856 44.8248L101.856 44.8248L102.011 44.2996ZM102.801 44.4394L102.762 44.9866L102.801 44.4394ZM106.361 43.9149L106.233 43.381L106.217 43.3849L106.201 43.3897L106.361 43.9149ZM106.413 43.9024L106.291 43.367L106.284 43.3685L106.413 43.9024ZM106.529 43.8778L106.634 44.4168L106.634 44.4168L106.529 43.8778ZM106.924 43.8211L106.874 43.2743L106.874 43.2743L106.924 43.8211ZM107.442 44.3822C107.522 44.3997 107.566 44.4229 107.587 44.4376C107.605 44.4503 107.607 44.4575 107.608 44.4594C107.61 44.4632 107.646 44.5527 107.548 44.7917L108.548 45.219C108.709 44.8268 108.769 44.3954 108.593 44.0065C108.411 43.6038 108.045 43.3918 107.665 43.309L107.442 44.3822ZM107.548 44.7917C107.64 44.5679 107.878 44.5194 108.033 44.5906L107.591 45.5905C107.933 45.7472 108.381 45.6224 108.548 45.219L107.548 44.7917ZM108.033 44.5906C108.181 44.6582 108.297 44.8527 108.21 45.0642L107.21 44.6369C107.049 45.028 107.257 45.4374 107.591 45.5905L108.033 44.5906ZM108.21 45.0642C108.302 44.8416 108.407 44.5174 108.292 44.2011C108.154 43.8224 107.81 43.7043 107.61 43.6606L107.386 44.7338C107.43 44.7432 107.422 44.7475 107.394 44.7293C107.378 44.7186 107.354 44.7004 107.331 44.6722C107.307 44.6433 107.288 44.6104 107.276 44.5764C107.252 44.5105 107.262 44.4703 107.259 44.4878C107.256 44.5056 107.245 44.5518 107.21 44.6369L108.21 45.0642ZM107.61 43.6606C107.396 43.614 107.158 43.6128 106.93 43.6331L107.03 44.7267C107.201 44.7115 107.319 44.7191 107.386 44.7338L107.61 43.6606ZM106.93 43.6331C106.788 43.6457 106.648 43.6668 106.517 43.6924L106.727 44.7704C106.826 44.7509 106.93 44.7356 107.03 44.7267L106.93 43.6331ZM106.51 43.6939L106.408 43.7152L106.632 44.7903L106.734 44.769L106.51 43.6939ZM106.4 43.7169C106.38 43.7213 106.363 43.7254 106.35 43.7287L106.615 44.7944C106.617 44.7939 106.625 44.7918 106.64 44.7886L106.4 43.7169ZM106.322 43.7364C104.871 44.1844 103.719 44.3212 102.836 44.2512L102.757 45.3456C103.814 45.4295 105.106 45.261 106.642 44.7867L106.322 43.7364ZM102.836 44.2512C102.278 44.2069 101.981 44.0989 101.885 44.0448L101.361 45.003C101.651 45.1668 102.124 45.2955 102.757 45.3456L102.836 44.2512ZM101.885 44.0448C102.027 44.1246 102.13 44.3318 102.021 44.538L101.065 44.0164C100.866 44.3939 101.041 44.822 101.361 45.003L101.885 44.0448ZM102.021 44.538C101.921 44.7278 101.715 44.769 101.573 44.7152L101.947 43.6868C101.638 43.5699 101.247 43.6725 101.065 44.0164L102.021 44.538ZM101.529 44.6965L101.593 44.7272L102.054 43.7362L101.991 43.7055L101.529 44.6965ZM101.607 44.7338C101.671 44.7624 101.755 44.7936 101.856 44.8248L102.166 43.7745C102.096 43.7527 102.055 43.7362 102.04 43.7296L101.607 44.7338ZM101.856 44.8248C102.111 44.9031 102.413 44.9589 102.762 44.9866L102.841 43.8921C102.554 43.8694 102.332 43.8254 102.166 43.7745L101.856 44.8248ZM102.762 44.9866C103.772 45.0667 105.019 44.9034 106.521 44.4401L106.201 43.3897C104.782 43.8275 103.676 43.9583 102.841 43.8921L102.762 44.9866ZM106.49 44.4487L106.541 44.4362L106.284 43.3685L106.233 43.381L106.49 44.4487ZM106.535 44.4377C106.56 44.432 106.593 44.4248 106.634 44.4168L106.424 43.3389C106.373 43.3489 106.328 43.3585 106.291 43.367L106.535 44.4377ZM106.634 44.4168C106.745 44.3951 106.86 44.378 106.974 44.3679L106.874 43.2743C106.719 43.2881 106.567 43.311 106.424 43.3389L106.634 44.4168ZM106.974 44.3679C107.175 44.35 107.329 44.3577 107.442 44.3822L107.665 43.309C107.411 43.2535 107.14 43.2507 106.874 43.2743L106.974 44.3679Z" fill="#5974FF" mask="url(#path-15-inside-3_25544_17961)"/>
<mask id="path-17-inside-4_25544_17961" fill="white">
<path d="M109.633 41.8525C109.862 41.9593 110.003 42.1736 110.058 42.4945C110.073 42.5843 110.015 42.6731 109.927 42.6928C109.839 42.7126 109.755 42.6557 109.74 42.5659C109.701 42.3424 109.619 42.2176 109.489 42.1571C109.309 42.0733 109.022 42.0952 108.553 42.2222L108.463 42.2473C108.354 42.2785 107.247 42.6329 106.808 42.754L106.763 42.7661C106.626 42.8027 106.492 42.8357 106.36 42.8653C105.533 43.0505 104.79 43.1143 104.142 43.088C103.951 43.0803 103.781 43.0651 103.63 43.0448L103.542 43.0319C103.437 43.0155 103.365 43.0002 103.325 42.9898C103.24 42.9673 103.191 42.8767 103.217 42.7876C103.242 42.6984 103.332 42.6444 103.418 42.6669L103.458 42.6764C103.492 42.6837 103.541 42.6928 103.604 42.7026C103.763 42.7276 103.952 42.7465 104.168 42.7552C104.79 42.7804 105.505 42.719 106.304 42.54C106.389 42.5209 106.475 42.5004 106.563 42.4782L106.695 42.4438C107.089 42.339 108.268 41.9611 108.39 41.9266C108.982 41.7575 109.352 41.7217 109.633 41.8525Z"/>
</mask>
<path d="M109.633 41.8525C109.862 41.9593 110.003 42.1736 110.058 42.4945C110.073 42.5843 110.015 42.6731 109.927 42.6928C109.839 42.7126 109.755 42.6557 109.74 42.5659C109.701 42.3424 109.619 42.2176 109.489 42.1571C109.309 42.0733 109.022 42.0952 108.553 42.2222L108.463 42.2473C108.354 42.2785 107.247 42.6329 106.808 42.754L106.763 42.7661C106.626 42.8027 106.492 42.8357 106.36 42.8653C105.533 43.0505 104.79 43.1143 104.142 43.088C103.951 43.0803 103.781 43.0651 103.63 43.0448L103.542 43.0319C103.437 43.0155 103.365 43.0002 103.325 42.9898C103.24 42.9673 103.191 42.8767 103.217 42.7876C103.242 42.6984 103.332 42.6444 103.418 42.6669L103.458 42.6764C103.492 42.6837 103.541 42.6928 103.604 42.7026C103.763 42.7276 103.952 42.7465 104.168 42.7552C104.79 42.7804 105.505 42.719 106.304 42.54C106.389 42.5209 106.475 42.5004 106.563 42.4782L106.695 42.4438C107.089 42.339 108.268 41.9611 108.39 41.9266C108.982 41.7575 109.352 41.7217 109.633 41.8525Z" fill="#F3F9FF"/>
<path d="M109.633 41.8525L109.857 41.354L109.633 41.8525ZM110.058 42.4945L109.524 42.5858L109.524 42.5858L110.058 42.4945ZM109.74 42.5659L109.206 42.6572L109.206 42.6572L109.74 42.5659ZM109.489 42.1571L109.713 41.6585L109.713 41.6585L109.489 42.1571ZM108.553 42.2222L108.411 41.6919L108.407 41.6929L108.553 42.2222ZM108.463 42.2473L108.317 41.7179L108.314 41.7189L108.463 42.2473ZM106.808 42.754L106.95 43.2843L106.952 43.2837L106.808 42.754ZM106.763 42.7661L106.903 43.297L106.906 43.2963L106.763 42.7661ZM106.36 42.8653L106.479 43.4013L106.479 43.4013L106.36 42.8653ZM104.142 43.088L104.123 43.6365L104.123 43.6365L104.142 43.088ZM103.63 43.0448L103.555 43.5881L103.561 43.5888L103.63 43.0448ZM103.542 43.0319L103.462 43.5744L103.467 43.5752L103.542 43.0319ZM103.325 42.9898L103.191 43.521L103.191 43.521L103.325 42.9898ZM103.217 42.7876L102.697 42.6321L102.697 42.6321L103.217 42.7876ZM103.418 42.6669L103.284 43.1981L103.291 43.2L103.299 43.2018L103.418 42.6669ZM103.458 42.6764L103.339 43.2113L103.349 43.2134L103.458 42.6764ZM103.604 42.7026L103.684 42.1602L103.684 42.1602L103.604 42.7026ZM104.168 42.7552L104.149 43.3037L104.149 43.3037L104.168 42.7552ZM106.304 42.54L106.424 43.0759L106.424 43.0759L106.304 42.54ZM106.563 42.4782L106.696 43.0108L106.7 43.01L106.563 42.4782ZM106.695 42.4438L106.832 42.9756L106.835 42.9747L106.695 42.4438ZM108.39 41.9266L108.539 42.455L108.39 41.9266ZM109.408 42.3511C109.429 42.3606 109.49 42.3868 109.524 42.5858L110.592 42.4031C110.516 41.9604 110.295 41.558 109.857 41.354L109.408 42.3511ZM109.524 42.5858C109.49 42.3862 109.615 42.2001 109.807 42.1569L110.046 43.2288C110.414 43.1461 110.657 42.7823 110.592 42.4031L109.524 42.5858ZM109.807 42.1569C110.02 42.109 110.236 42.2534 110.273 42.4746L109.206 42.6572C109.275 43.0581 109.657 43.3161 110.046 43.2288L109.807 42.1569ZM110.273 42.4746C110.219 42.1548 110.07 41.8243 109.713 41.6585L109.265 42.6556C109.252 42.6496 109.236 42.64 109.221 42.6264C109.206 42.6129 109.196 42.6001 109.191 42.592C109.187 42.5844 109.188 42.5837 109.191 42.5943C109.195 42.605 109.201 42.625 109.206 42.6572L110.273 42.4746ZM109.713 41.6585C109.508 41.5629 109.289 41.5488 109.089 41.563C108.886 41.5774 108.66 41.6245 108.411 41.6919L108.696 42.7525C108.915 42.693 109.066 42.6655 109.17 42.6582C109.276 42.6506 109.29 42.6674 109.265 42.6556L109.713 41.6585ZM108.407 41.6929L108.317 41.7179L108.609 42.7766L108.699 42.7516L108.407 41.6929ZM108.314 41.7189C108.251 41.7368 107.932 41.8379 107.598 41.9422C107.25 42.0505 106.873 42.1666 106.663 42.2243L106.952 43.2837C107.182 43.2204 107.578 43.0986 107.921 42.9917C108.094 42.9377 108.257 42.8864 108.383 42.8471C108.446 42.8273 108.499 42.8106 108.54 42.7979C108.56 42.7916 108.577 42.7864 108.59 42.7824C108.596 42.7805 108.602 42.7789 108.606 42.7777C108.608 42.7771 108.609 42.7766 108.61 42.7762C108.611 42.7761 108.612 42.7759 108.612 42.7758C108.612 42.7757 108.612 42.7757 108.612 42.7757L108.314 41.7189ZM106.665 42.2237L106.621 42.2358L106.906 43.2963L106.95 43.2843L106.665 42.2237ZM106.623 42.2351C106.492 42.2702 106.365 42.3014 106.241 42.3293L106.479 43.4013C106.619 43.37 106.759 43.3353 106.903 43.297L106.623 42.2351ZM106.241 42.3293C105.454 42.5054 104.758 42.5638 104.161 42.5395L104.123 43.6365C104.822 43.6649 105.612 43.5956 106.479 43.4013L106.241 42.3293ZM104.161 42.5395C103.986 42.5324 103.832 42.5186 103.699 42.5007L103.561 43.5888C103.73 43.6116 103.917 43.6281 104.123 43.6365L104.161 42.5395ZM103.704 42.5014L103.616 42.4886L103.467 43.5752L103.555 43.5881L103.704 42.5014ZM103.622 42.4895C103.527 42.4746 103.474 42.4626 103.459 42.4586L103.191 43.521C103.255 43.5378 103.347 43.5565 103.462 43.5744L103.622 42.4895ZM103.459 42.4586C103.69 42.5196 103.791 42.7554 103.737 42.943L102.697 42.6321C102.592 42.9981 102.789 43.415 103.191 43.521L103.459 42.4586ZM103.737 42.943C103.686 43.1192 103.5 43.2551 103.284 43.1981L103.552 42.1357C103.165 42.0337 102.798 42.2775 102.697 42.6321L103.737 42.943ZM103.299 43.2018L103.339 43.2112L103.577 42.1415L103.537 42.1321L103.299 43.2018ZM103.349 43.2134C103.394 43.2232 103.453 43.234 103.523 43.2451L103.684 42.1602C103.629 42.1516 103.59 42.1441 103.567 42.1393L103.349 43.2134ZM103.523 43.2451C103.706 43.2736 103.915 43.2942 104.149 43.3037L104.187 42.2068C103.989 42.1987 103.821 42.1816 103.684 42.1602L103.523 43.2451ZM104.149 43.3037C104.822 43.331 105.584 43.2641 106.424 43.0759L106.185 42.004C105.426 42.1739 104.757 42.2299 104.187 42.2068L104.149 43.3037ZM106.424 43.0759C106.514 43.0558 106.604 43.0341 106.696 43.0108L106.429 41.9456C106.346 41.9666 106.265 41.9861 106.185 42.004L106.424 43.0759ZM106.7 43.01L106.832 42.9756L106.558 41.912L106.426 41.9464L106.7 43.01ZM106.835 42.9747C107.045 42.9188 107.451 42.7943 107.806 42.6836C108.176 42.5684 108.486 42.47 108.539 42.455L108.241 41.3981C108.172 41.4177 107.832 41.5255 107.483 41.6341C107.12 41.7471 106.739 41.864 106.555 41.9129L106.835 42.9747ZM108.539 42.455C109.136 42.2845 109.326 42.3129 109.408 42.3511L109.857 41.354C109.377 41.1306 108.828 41.2305 108.241 41.3981L108.539 42.455Z" fill="#5974FF" mask="url(#path-17-inside-4_25544_17961)"/>
<path d="M148.51 47.9716L147.893 46.9877C147.862 46.5653 147.773 46.0787 147.618 45.5232C147.618 45.5232 145.917 41.204 144.905 39.0335C144.554 38.2801 144.332 37.2687 144.127 36.3305C143.74 34.5659 143.411 33.0602 142.38 34.0174C141.525 34.8119 141.885 36.5165 142.311 38.0828L142.047 37.6622C142.047 37.6622 132.281 28.6431 129.836 29.8333C128.579 30.6251 130.057 31.5745 131.894 32.7542C133.276 33.6419 134.861 34.6599 135.636 35.8393C133.302 36.1825 135.041 38.8193 135.041 38.8193C135.041 38.8193 133.195 39.1454 134.254 41.368C132.757 42.5631 134.768 44.9473 134.768 44.9473C134.768 44.9473 138.71 48.7 142.864 52.2048L163.971 74.7541C166.243 76.805 169.184 77.4935 172.352 74.5163C173.838 73.1197 175.271 68.9557 172.932 67.003L148.51 47.9716Z" fill="#0A2FF1"/>
<path d="M136.09 35.9281C135.987 35.8614 135.841 35.8794 135.764 35.9682C135.687 36.057 135.708 36.183 135.811 36.2496L135.946 36.3401L136.12 36.459C136.18 36.5012 136.244 36.5459 136.31 36.5929C136.686 36.8615 137.062 37.15 137.412 37.4468C137.807 37.7815 138.144 38.1053 138.404 38.409C139.058 39.1738 139.149 39.6961 138.627 39.9794C138.519 40.0386 138.486 40.1627 138.555 40.2566C138.623 40.3506 138.767 40.3788 138.876 40.3196C139.706 39.8685 139.572 39.0979 138.778 38.1704C138.502 37.8475 138.15 37.5084 137.739 37.1599C137.378 36.8544 136.992 36.5585 136.607 36.2831L136.412 36.1458L136.132 35.9559C136.115 35.9443 136.101 35.935 136.09 35.9281Z" fill="#0A2FF1"/>
<path d="M135.736 38.7728C135.686 38.864 135.722 38.9771 135.817 39.0254L135.93 39.0845L136.075 39.1626C136.125 39.1904 136.178 39.2199 136.233 39.251C136.546 39.4286 136.858 39.6213 137.15 39.822C137.573 40.1137 137.913 40.3966 138.137 40.657C138.466 41.0391 138.508 41.3081 138.267 41.5096C138.089 41.6576 137.847 41.6832 137.538 41.5973C137.305 41.5327 137.051 41.4087 136.79 41.2425C136.646 41.1514 136.51 41.0534 136.386 40.9556L136.292 40.879C136.266 40.8574 136.246 40.84 136.232 40.8278C136.153 40.7572 136.029 40.7611 135.956 40.8364C135.882 40.9117 135.886 41.0299 135.965 41.1005L136.006 41.1367C136.04 41.165 136.084 41.2014 136.138 41.2439C136.272 41.3494 136.418 41.4549 136.573 41.5537C136.865 41.7391 137.153 41.8794 137.429 41.9561C137.854 42.0744 138.232 42.0344 138.524 41.7912C138.962 41.4257 138.885 40.9378 138.439 40.4194C138.189 40.1299 137.826 39.8276 137.378 39.5188C137.076 39.311 136.754 39.1125 136.432 38.9296L136.269 38.8386C136.243 38.8243 136.218 38.8104 136.193 38.797L136 38.6952C135.905 38.6469 135.787 38.6816 135.736 38.7728Z" fill="#0A2FF1"/>
<path d="M135.731 41.0006C135.681 41.0917 135.717 41.2048 135.812 41.2531L135.925 41.3122L136.069 41.3904C136.12 41.4181 136.173 41.4476 136.227 41.4787C136.54 41.6563 136.853 41.8491 137.144 42.0497C137.568 42.3414 137.908 42.6243 138.132 42.8848C138.461 43.2668 138.503 43.5358 138.262 43.7373C138.084 43.8853 137.842 43.9109 137.532 43.825C137.3 43.7604 137.046 43.6365 136.785 43.4703C136.641 43.3791 136.505 43.2812 136.381 43.1833L136.286 43.1067C136.26 43.0851 136.24 43.0678 136.227 43.0555C136.148 42.9849 136.024 42.9888 135.951 43.0641C135.877 43.1394 135.881 43.2577 135.96 43.3282L136.001 43.3644C136.035 43.3928 136.079 43.4291 136.133 43.4716C136.266 43.5771 136.413 43.6826 136.568 43.7814C136.86 43.9669 137.147 44.1072 137.423 44.1839C137.849 44.3021 138.227 44.2622 138.518 44.019C138.957 43.6535 138.88 43.1655 138.433 42.6472C138.184 42.3576 137.821 42.0554 137.373 41.7465C137.071 41.5388 136.749 41.3402 136.427 41.1574L136.264 41.0664C136.238 41.052 136.213 41.0382 136.188 41.0247L135.995 40.9229C135.9 40.8746 135.782 40.9094 135.731 41.0006Z" fill="#0A2FF1"/>
<path d="M142.562 38.6192C142.444 38.6185 142.346 38.6895 142.329 38.7833L142.326 38.8153L142.346 41.6972L142.283 41.8116L142.258 41.8576C142.174 42.0173 142.088 42.1969 142.006 42.3927C141.714 43.082 141.533 43.7899 141.529 44.4688C141.524 45.1848 141.719 45.8208 142.154 46.3459C142.229 46.4365 142.377 46.4604 142.485 46.3993C142.593 46.3383 142.62 46.2154 142.545 46.1249C142.171 45.6738 142 45.1168 142.005 44.4764C142.009 43.8472 142.18 43.1799 142.455 42.5282C142.534 42.3419 142.615 42.1712 142.695 42.02L142.772 41.8775C142.782 41.8602 142.79 41.8461 142.797 41.8355C142.808 41.8171 142.816 41.7974 142.819 41.7771L142.822 41.7462L142.802 38.8185C142.801 38.7202 142.714 38.6382 142.601 38.6221L142.562 38.6192Z" fill="#0A2FF1"/>
<rect x="65.9117" y="15.8154" width="36.7157" height="5.62924" fill="#3FFFF3"/>
</svg>
