<?xml version="1.0" encoding="UTF-8"?>
<!DOCTYPE svg PUBLIC "-//W3C//DTD SVG 1.1//EN" "http://www.w3.org/Graphics/SVG/1.1/DTD/svg11.dtd">
<!-- Creator: CorelDRAW 2021 (64-Bit) -->
<svg xmlns="http://www.w3.org/2000/svg" xml:space="preserve" width="63.3458mm" height="12.0484mm" version="1.1" style="shape-rendering:geometricPrecision; text-rendering:geometricPrecision; image-rendering:optimizeQuality; fill-rule:evenodd; clip-rule:evenodd"
viewBox="0 0 2520.81 479.46"
 xmlns:xlink="http://www.w3.org/1999/xlink"
 xmlns:xodm="http://www.corel.com/coreldraw/odm/2003">
 <defs>
  <style type="text/css">
   <![CDATA[
    .fil2 {fill:none}
    .fil0 {fill:#FD861D}
    .fil1 {fill:#211650;fill-rule:nonzero}
   ]]>
  </style>
 </defs>
 <g id="Capa_x0020_1">
  <metadata id="CorelCorpID_0Corel-Layer"/>
  <g id="_2040230563456">
   <path class="fil0" d="M20.23 80.07c14.88,1.55 105.21,0.41 128.07,0.41 73.5,0 172.43,-14.89 205.31,51.83 18.09,36.71 7.81,77.87 -16.71,95.39 3.56,7.18 -0.98,-0.01 4.97,5.63 2.34,2.22 3.35,3.2 5.17,4.91 5.57,5.23 5.62,5.44 9.34,10.88 5.95,8.71 10.29,17.99 13,29.22 10.72,44.48 -14.13,87.32 -62.62,103.03 -12.42,4.03 -64.62,12.28 -74.01,6.53 -3.98,-3.63 -1.76,-28.12 -1.78,-33.48 -0.04,-10.5 -2.31,-27.69 1.29,-35.75 12.54,-5.06 33.3,2.4 50.16,-7.01 12.38,-6.92 17.82,-26.74 4.8,-38.86 -11.32,-10.54 -33.9,-7.62 -51.32,-7.61 -16.77,0 -43.09,-1.56 -58.68,0.47 -3.26,23.79 3.54,109.3 -1.72,122.4 -0.39,0.21 -1.02,-0.04 -1.24,0.45 -0.22,0.49 -0.96,0.34 -1.28,0.39l-33.1 0.09c-12.46,-0.01 -26.02,0.62 -38.23,0.26 -2.85,-9.69 -2.75,-183.48 0.13,-192.53 28.18,-6.12 162.66,7.44 178.75,-6.62 5.18,-4.53 7.22,-13.68 4.77,-23.59 -2.09,-8.43 -7.31,-11.89 -17.63,-13.93 -23.79,-4.7 -94.07,-1.2 -122.73,-1.18 -41.37,0.02 -82.82,0.17 -124.15,-0.23 -0.62,5.26 -0.94,20.95 -1.07,41.55l0 60.88c0.17,43.08 0.57,86.66 0.57,102.5 0,6.4 -0.31,13.53 -0.57,20.91l0 30.38c1.09,16.27 4.81,30.42 15.21,36.8 5.3,3.25 13.43,5.16 22.94,6.23l75.29 0c69.07,0 138.14,0 207.21,0l68.16 0c46.51,-2.1 42.98,-16.39 42.98,-96.01 0,-11.61 0.32,-58.13 0.55,-111.65l0 -147.01c-0.22,-26.3 -0.64,-44.96 -1.36,-48.97 -3.72,-20.75 -20.39,-26.34 -40.14,-27.62l-35.01 0 -1.49 0 -154.99 -0 -155.39 0c-42.37,0.18 -44.11,22.15 -43.43,60.91z"/>
   <path class="fil1" d="M484.44 389.2l0 -200.3 74.23 0 0 200.3 -74.23 0zm37.12 -216.41c-13.57,0 -24.42,-4.03 -32.52,-12.08 -8.1,-8.06 -12.16,-18.07 -12.16,-30.03 0,-11.96 4.06,-21.97 12.16,-30.02 8.1,-8.06 18.95,-12.09 32.52,-12.09 13.57,0 24.42,3.78 32.52,11.35 8.1,7.56 12.15,17.33 12.15,29.29 0,12.69 -4.06,23.13 -12.15,31.31 -8.1,8.18 -18.95,12.26 -32.52,12.26zm156.69 220.07c-24.75,0 -44.02,-6.65 -57.82,-19.96 -13.79,-13.3 -20.69,-33.75 -20.69,-61.34l0 -167.71 74.24 0 0 166.98c0,6.1 1.48,10.86 4.44,14.28 2.96,3.42 6.62,5.13 11,5.13 6.35,0 11.93,-1.83 16.75,-5.49l17.74 57.49c-5.69,3.66 -12.54,6.35 -20.53,8.05 -7.99,1.71 -16.37,2.56 -25.13,2.56zm-103.14 -132.56l0 -60.42 135.66 0 0 60.42 -135.66 0zm243.4 128.89l100.51 -256.33 76.21 0 100.52 256.33 -80.15 0 -74.24 -215.32 30.22 0 -74.24 215.32 -78.84 0zm59.78 -44.67l19.71 -62.25 105.77 0 19.71 62.25 -145.19 0zm322.57 48.33c-20.59,0 -38.87,-4.39 -54.86,-13.18 -15.99,-8.79 -28.52,-21.06 -37.61,-36.8 -9.09,-15.75 -13.63,-33.75 -13.63,-54.01 0,-20.26 4.54,-38.2 13.63,-53.83 9.09,-15.62 21.62,-27.83 37.61,-36.61 15.99,-8.79 34.27,-13.18 54.86,-13.18 21.9,0 40.62,5.25 56.17,15.75 15.55,10.5 26.28,25.02 32.19,43.57l-57.48 31.49c-3.72,-9.28 -8.27,-15.99 -13.63,-20.14 -5.36,-4.15 -11.22,-6.22 -17.57,-6.22 -5.47,0 -10.57,1.46 -15.27,4.39 -4.71,2.93 -8.43,7.26 -11.17,13 -2.74,5.74 -4.11,13 -4.11,21.79 0,8.79 1.37,16.11 4.11,21.97 2.74,5.86 6.46,10.26 11.17,13.18 4.71,2.93 9.8,4.39 15.27,4.39 6.35,0 12.21,-2.07 17.57,-6.22 5.37,-4.15 9.91,-10.86 13.63,-20.14l57.48 31.49c-5.91,18.56 -16.64,33.08 -32.19,43.57 -15.55,10.5 -34.27,15.75 -56.17,15.75zm214.17 -3.66l0 -35.52 -5.26 -9.52 0 -67.38c0,-9.76 -2.68,-17.21 -8.05,-22.34 -5.36,-5.13 -14.07,-7.69 -26.11,-7.69 -8.1,0 -16.32,1.4 -24.64,4.21 -8.32,2.81 -15.44,6.65 -21.35,11.54l-23.65 -54.56c10.51,-7.32 23.1,-12.94 37.77,-16.84 14.67,-3.9 29.02,-5.86 43.03,-5.86 30.88,0 54.8,7.69 71.77,23.07 16.98,15.38 25.46,39.79 25.46,73.24l0 107.66 -68.98 0zm-50.92 3.66c-14.67,0 -26.93,-2.81 -36.79,-8.42 -9.85,-5.61 -17.3,-13.12 -22.34,-22.52 -5.03,-9.4 -7.56,-19.84 -7.56,-31.31 0,-12.94 2.96,-23.92 8.87,-32.95 5.91,-9.03 14.95,-15.87 27.1,-20.51 12.15,-4.64 27.54,-6.96 46.15,-6.96l37.45 0 0 39.91 -25.62 0c-7.89,0 -13.63,1.4 -17.25,4.21 -3.62,2.81 -5.42,7.02 -5.42,12.63 0,4.64 1.59,8.48 4.77,11.54 3.17,3.05 7.5,4.58 12.97,4.58 5.04,0 9.69,-1.53 13.96,-4.58 4.27,-3.05 7.39,-7.88 9.36,-14.47l9.52 24.53c-2.85,14.89 -8.87,26 -18.07,33.32 -9.19,7.32 -21.56,10.98 -37.12,10.98zm234.21 0c-15.55,0 -29.95,-4.21 -43.19,-12.63 -13.25,-8.42 -23.81,-20.39 -31.7,-35.89 -7.88,-15.5 -11.83,-34 -11.83,-55.48 0,-21.48 3.94,-39.97 11.83,-55.48 7.89,-15.5 18.45,-27.4 31.7,-35.7 13.25,-8.3 27.65,-12.45 43.19,-12.45 15.77,0 28.69,3.72 38.76,11.17 10.08,7.45 17.52,18.79 22.34,34.05 4.82,15.26 7.22,34.73 7.22,58.41 0,23.92 -2.24,43.57 -6.73,58.96 -4.49,15.38 -11.72,26.73 -21.68,34.06 -9.96,7.32 -23.27,10.98 -39.91,10.98zm17.74 -64.45c5.48,0 10.4,-1.46 14.78,-4.39 4.38,-2.93 7.88,-7.39 10.51,-13.37 2.63,-5.98 3.94,-13.24 3.94,-21.79 0,-8.79 -1.31,-16.05 -3.94,-21.79 -2.63,-5.74 -6.13,-10.07 -10.51,-13 -4.38,-2.93 -9.31,-4.39 -14.78,-4.39 -5.47,0 -10.4,1.46 -14.78,4.39 -4.38,2.93 -7.88,7.26 -10.51,13 -2.63,5.74 -3.94,13 -3.94,21.79 0,8.54 1.31,15.81 3.94,21.79 2.63,5.98 6.13,10.44 10.51,13.37 4.38,2.93 9.31,4.39 14.78,4.39zm31.54 60.79l0 -27.1 -0.33 -73.24 -3.28 -73.24 0 -98.13 74.24 0 0 271.7 -70.62 0zm202.67 3.66c-21.89,0 -41,-4.52 -57.32,-13.55 -16.32,-9.03 -28.96,-21.43 -37.94,-37.17 -8.98,-15.75 -13.47,-33.51 -13.47,-53.28 0,-20.26 4.44,-38.2 13.31,-53.83 8.87,-15.62 21.02,-27.83 36.46,-36.61 15.44,-8.79 32.79,-13.18 52.06,-13.18 17.74,0 34.11,3.91 49.11,11.72 15,7.81 27.04,19.41 36.13,34.78 9.09,15.38 13.63,34.42 13.63,57.12 0,2.93 -0.11,6.16 -0.33,9.71 -0.22,3.54 -0.43,6.77 -0.66,9.7l-138.29 0 0 -39.91 98.87 0 -27.92 10.62c0,-7.81 -1.26,-14.47 -3.78,-19.96 -2.52,-5.5 -5.97,-9.77 -10.34,-12.82 -4.38,-3.05 -9.64,-4.58 -15.77,-4.58 -6.13,0 -11.44,1.52 -15.93,4.58 -4.49,3.05 -7.94,7.32 -10.35,12.82 -2.41,5.49 -3.61,12.15 -3.61,19.96l0 12.45c0,8.54 1.53,15.87 4.6,21.97 3.06,6.1 7.44,10.68 13.14,13.73 5.69,3.05 12.59,4.58 20.69,4.58 8.32,0 15.17,-1.22 20.53,-3.66 5.36,-2.44 11,-6.1 16.92,-10.99l38.76 43.58c-8.76,10.49 -19.54,18.49 -32.36,23.98 -12.81,5.49 -28.19,8.24 -46.15,8.24zm353.12 -207.62c13.57,0 25.78,3.11 36.62,9.34 10.84,6.23 19.38,15.93 25.62,29.11 6.24,13.18 9.36,30.27 9.36,51.26l0 114.25 -74.24 0 0 -99.97c0,-12.45 -1.86,-21.3 -5.58,-26.55 -3.72,-5.25 -8.54,-7.88 -14.45,-7.88 -4.38,0 -8.32,1.22 -11.83,3.67 -3.5,2.44 -6.3,6.28 -8.37,11.53 -2.08,5.25 -3.12,12.39 -3.12,21.42l0 97.77 -74.24 0 0 -99.97c0,-12.45 -1.75,-21.3 -5.25,-26.55 -3.5,-5.25 -8.43,-7.88 -14.78,-7.88 -4.38,0 -8.32,1.22 -11.82,3.67 -3.51,2.44 -6.3,6.28 -8.38,11.53 -2.08,5.25 -3.12,12.39 -3.12,21.42l0 97.77 -74.24 0 0 -200.3 70.62 0 0 57.49 -14.45 -16.11c6.79,-15.13 15.88,-26.42 27.26,-33.87 11.39,-7.45 24.09,-11.17 38.1,-11.17 15.77,0 29.73,4.58 41.88,13.73 12.15,9.15 20.31,23.62 24.47,43.39l-22.67 -4.03c6.57,-16.6 16.15,-29.6 28.74,-39 12.59,-9.4 27.21,-14.1 43.85,-14.1zm139.93 278.66c-9.85,0 -19.87,-1.65 -30.06,-4.95 -10.18,-3.29 -18.34,-7.63 -24.47,-13l24.64 -56.76c3.72,3.17 7.94,5.74 12.65,7.69 4.71,1.95 9.25,2.93 13.63,2.93 6.57,0 11.6,-1.53 15.11,-4.58 3.5,-3.05 6.35,-7.63 8.54,-13.73l7.56 -21.24 5.25 -8.06 57.48 -163.32 70.3 0 -73.91 204.33c-6.57,18.31 -14.18,32.59 -22.83,42.84 -8.66,10.26 -18.29,17.45 -28.91,21.6 -10.62,4.15 -22.28,6.23 -34.98,6.23zm17.41 -65.55l-78.18 -209.45 76.21 0 53.87 155.99 -51.9 53.46z"/>
   <polygon class="fil2" points="-0,0 2520.81,0 2520.81,479.46 -0,479.46 "/>
  </g>
 </g>
</svg>
